<svg width="1200" height="1154" viewBox="0 0 1200 1154" fill="none" xmlns="http://www.w3.org/2000/svg">
<path d="M1199.4 380.537L1149.07 669.233C1142.87 701.124 1117.46 720.515 1088.16 720.879H354.5L339.934 802.985H1039.16C1075.98 805.783 1100.95 831.865 1101.4 865.225C1098.72 901.968 1072.64 927.011 1039.16 927.467H265.773C223.946 923.705 199.005 890.364 203.531 853.307L236.638 673.203L186.315 167.323L43.2919 122.3C8.34089 108.423 -5.92411 76.8052 2.23889 44.1672C15.8119 10.1522 48.3349 -5.3888 80.3719 3.1142L263.124 61.3832C287.744 70.6122 301.907 90.7652 305.501 114.355L316.095 215.001L1145.1 307.701C1183.19 315.952 1203.87 346.123 1199.4 380.537V380.537ZM455.272 1058.16C455.272 1110.63 412.732 1153.17 360.254 1153.17C307.777 1153.17 265.237 1110.63 265.237 1058.16C265.237 1005.68 307.778 963.137 360.254 963.137C412.731 963.138 455.272 1005.68 455.272 1058.16ZM1022.52 1058.16C1022.52 1110.63 979.983 1153.17 927.505 1153.17C875.028 1153.17 832.488 1110.63 832.488 1058.16C832.488 1005.68 875.028 963.137 927.505 963.137C979.983 963.138 1022.52 1005.68 1022.52 1058.16Z" fill="white"/>
</svg>
