<svg width="240" height="208" viewBox="0 0 240 208" fill="none" xmlns="http://www.w3.org/2000/svg">
<path d="M232 192H216V119.5C216.002 119.36 215.968 119.222 215.9 119.1L200.9 13.9C200.392 10.0643 198.512 6.5426 195.607 3.98696C192.702 1.43131 188.969 0.0148973 185.1 0H166.9C163.061 0.00811734 159.353 1.39639 156.452 3.91146C153.551 6.42654 151.652 9.90072 151.1 13.7L139.5 94.7L100.8 65.6C99.6114 64.7086 98.1981 64.1657 96.7184 64.0323C95.2388 63.8989 93.7511 64.1802 92.4223 64.8446C91.0934 65.509 89.9759 66.5303 89.1948 67.7942C88.4137 69.058 88 70.5143 88 72V104L36.8 65.6C35.6114 64.7086 34.1981 64.1657 32.7184 64.0323C31.2388 63.8989 29.7511 64.1802 28.4223 64.8446C27.0934 65.509 25.9759 66.5303 25.1948 67.7942C24.4137 69.058 24 70.5143 24 72V192H8C5.87827 192 3.84344 192.843 2.34315 194.343C0.842854 195.843 0 197.878 0 200C0 202.122 0.842854 204.157 2.34315 205.657C3.84344 207.157 5.87827 208 8 208H232C234.122 208 236.157 207.157 237.657 205.657C239.157 204.157 240 202.122 240 200C240 197.878 239.157 195.843 237.657 194.343C236.157 192.843 234.122 192 232 192ZM92 168H64C61.8783 168 59.8434 167.157 58.3431 165.657C56.8429 164.157 56 162.122 56 160C56 157.878 56.8429 155.843 58.3431 154.343C59.8434 152.843 61.8783 152 64 152H92C94.1217 152 96.1566 152.843 97.6569 154.343C99.1571 155.843 100 157.878 100 160C100 162.122 99.1571 164.157 97.6569 165.657C96.1566 167.157 94.1217 168 92 168ZM176 168H148C145.878 168 143.843 167.157 142.343 165.657C140.843 164.157 140 162.122 140 160C140 157.878 140.843 155.843 142.343 154.343C143.843 152.843 145.878 152 148 152H176C178.122 152 180.157 152.843 181.657 154.343C183.157 155.843 184 157.878 184 160C184 162.122 183.157 164.157 181.657 165.657C180.157 167.157 178.122 168 176 168ZM162.7 112L154.1 105.6L166.9 16H185.1L198.8 112H162.7Z" fill="black"/>
</svg>
