<svg width="512" height="512" viewBox="0 0 512 512" fill="none" xmlns="http://www.w3.org/2000/svg">
<g clip-path="url(#clip0_28_19)">
<path d="M208 512C202.944 512.026 198 510.508 193.829 507.649C189.658 504.789 186.46 500.726 184.66 496L144.82 392.4C144.013 390.312 142.779 388.417 141.196 386.834C139.614 385.251 137.718 384.017 135.63 383.21L32.0001 343.34C27.2795 341.528 23.2193 338.328 20.3552 334.161C17.4912 329.994 15.958 325.056 15.958 320C15.958 314.944 17.4912 310.006 20.3552 305.839C23.2193 301.672 27.2795 298.472 32.0001 296.66L135.6 256.82C137.688 256.013 139.584 254.779 141.166 253.196C142.749 251.614 143.983 249.718 144.79 247.63L184.66 144C186.472 139.28 189.672 135.219 193.839 132.355C198.006 129.491 202.944 127.958 208 127.958C213.056 127.958 217.994 129.491 222.161 132.355C226.328 135.219 229.528 139.28 231.34 144L271.18 247.6C271.987 249.688 273.221 251.584 274.804 253.166C276.387 254.749 278.282 255.983 280.37 256.79L383.37 296.42C388.283 298.241 392.515 301.532 395.491 305.844C398.466 310.156 400.041 315.281 400 320.52C399.924 325.488 398.358 330.319 395.505 334.388C392.653 338.456 388.645 341.575 384 343.34L280.4 383.18C278.312 383.987 276.417 385.221 274.834 386.804C273.251 388.387 272.017 390.282 271.21 392.37L231.34 496C229.541 500.726 226.342 504.789 222.171 507.649C218 510.508 213.057 512.026 208 512V512Z" fill="black"/>
<path d="M88.0001 176C85.0356 176 82.1408 175.102 79.6969 173.424C77.2531 171.746 75.375 169.367 74.3101 166.6L57.4501 122.76C57.0846 121.801 56.5207 120.931 55.7951 120.205C55.0696 119.48 54.1989 118.916 53.2401 118.55L9.40007 101.69C6.63385 100.625 4.25524 98.7467 2.57758 96.3029C0.899932 93.8591 0.00195313 90.9644 0.00195312 88.0002C0.00195313 85.0359 0.899932 82.1412 2.57758 79.6974C4.25524 77.2536 6.63385 75.3754 9.40007 74.3102L53.2401 57.4502C54.1979 57.0831 55.0678 56.5185 55.7931 55.7932C56.5184 55.0679 57.083 54.198 57.4501 53.2402L74.1601 9.79016C75.1024 7.23219 76.7241 4.97938 78.8507 3.27386C80.9773 1.56833 83.5285 0.474586 86.2301 0.110164C89.4735 -0.284134 92.7558 0.415652 95.5564 2.09856C98.3571 3.78146 100.516 6.35116 101.69 9.40016L118.55 53.2402C118.917 54.198 119.482 55.0679 120.207 55.7932C120.932 56.5185 121.802 57.0831 122.76 57.4502L166.6 74.3102C169.366 75.3754 171.745 77.2536 173.423 79.6974C175.1 82.1412 175.998 85.0359 175.998 88.0002C175.998 90.9644 175.1 93.8591 173.423 96.3029C171.745 98.7467 169.366 100.625 166.6 101.69L122.76 118.55C121.801 118.916 120.931 119.48 120.205 120.205C119.479 120.931 118.915 121.801 118.55 122.76L101.69 166.6C100.625 169.367 98.747 171.746 96.3032 173.424C93.8594 175.102 90.9645 176 88.0001 176V176Z" fill="black"/>
<path d="M400 256C396.766 255.999 393.608 255.018 390.943 253.187C388.278 251.355 386.23 248.759 385.07 245.74L362.23 186.37C361.828 185.324 361.211 184.374 360.419 183.581C359.626 182.789 358.676 182.172 357.63 181.77L298.26 158.93C295.244 157.768 292.65 155.719 290.821 153.054C288.992 150.389 288.013 147.233 288.013 144C288.013 140.768 288.992 137.611 290.821 134.946C292.65 132.281 295.244 130.232 298.26 129.07L357.63 106.23C358.676 105.828 359.626 105.211 360.419 104.419C361.211 103.626 361.828 102.676 362.23 101.63L384.9 42.6801C385.935 39.8924 387.706 37.4374 390.025 35.5762C392.344 33.7149 395.124 32.5171 398.07 32.1101C401.609 31.6817 405.19 32.4476 408.245 34.2865C411.299 36.1253 413.652 38.9317 414.93 42.2601L437.77 101.63C438.172 102.676 438.789 103.626 439.581 104.419C440.374 105.211 441.324 105.828 442.37 106.23L501.74 129.07C504.756 130.232 507.35 132.281 509.179 134.946C511.008 137.611 511.987 140.768 511.987 144C511.987 147.233 511.008 150.389 509.179 153.054C507.35 155.719 504.756 157.768 501.74 158.93L442.37 181.77C441.324 182.172 440.374 182.789 439.581 183.581C438.789 184.374 438.172 185.324 437.77 186.37L414.93 245.74C413.77 248.759 411.722 251.355 409.057 253.187C406.391 255.018 403.234 255.999 400 256Z" fill="black"/>
</g>
<defs>
<clipPath id="clip0_28_19">
<rect width="512" height="512" fill="white"/>
</clipPath>
</defs>
</svg>
